<?xml version="1.0" encoding="UTF-8"?>
<svg id="Layer_1" xmlns="http://www.w3.org/2000/svg" viewBox="0 0 979.06 721.72">
  <defs>
    <style>
      .cls-1 {
        fill: #3797ca;
        fill-rule: evenodd;
      }
    </style>
  </defs>
  <path class="cls-1" d="M914.06,523.52c-7.27-12.47-21.54-56.54-29-64,6.45,22.31-5.19,88.04-26,104-39.23,30.08-90.44,22.7-113-14-21.58-35.1-12.01-106.45-12-160V19.52h-142v108c-7-9-14-18-21-27-33.92-42.55-90.3-74.83-151-90C220.21-39.41,80.59,97.68,28.06,225.52c-12.85,31.27-34.9,110.87-26,160,8.1,44.71,9.62,82.29,24,118,53.19,132.11,236.04,276.51,435,194,43.66-18.1,84.68-47.23,112-82,9.33-13,18.67-26,28-39l1-2c35.26,111.02,145.21,185.54,286,125,27.93-12.01,54.15-34.53,72-57,6.33-8,12.67-16,19-24v-2c-22.7-29.86-45.36-59.33-65-93ZM592.06,368.52c0,34.2-.67,62.3-10,86-32.63,82.84-98.52,125.62-199,142-39.05,6.37-77.23-9.34-102-20-91.67-39.47-167.21-151.76-130-284,19.22-68.33,68.69-124.5,130-151,20.8-8.99,45.55-8.62,69-18,129.26-.62,214.66,66.58,240,168,5.34,21.37,2,52.27,2,77Z"/>
</svg>