<?xml version="1.0" encoding="UTF-8"?>
<svg id="Layer_1" xmlns="http://www.w3.org/2000/svg" viewBox="0 0 659.17 719.49">
  <defs>
    <style>
      .cls-1 {
        fill: #f7b35e;
        fill-rule: evenodd;
      }
    </style>
  </defs>
  <path class="cls-1" d="M659,719.49h-138c.32-113.57,3.08-240.01-4-351,.67-12.67,1.33-25.33,2-38,0-64.68-2.77-115.84-29-153-30.65-43.42-99.53-71.33-169-44-106.12,41.75-85.02,173.31-85,317l-1,80c-19.84,122.73-87.99,199.2-235,185v-126c151.93-2.07,74.83-215.3,96-347C114.66,126.37,161.01,54.11,257,16.49c31.29-12.26,83.72-21,128-14l59,2c61.95,11.39,113.45,36.26,146,77,26.49,33.16,46.96,72.37,59,120,14.95,59.12,9,124.02,9,200,.33,105.99.67,212.01,1,318Z"/>
</svg>