<?xml version="1.0" encoding="UTF-8"?>
<svg id="Layer_1" xmlns="http://www.w3.org/2000/svg" viewBox="0 0 609.99 717.85">
  <defs>
    <style>
      .cls-1 {
        fill: #62b96f;
        fill-rule: evenodd;
      }
    </style>
  </defs>
  <path class="cls-1" d="M339.99.09c74.6-1.43,140.51,13.76,195,35,21.94,8.55,51.59,14.47,67,30-8.33,44.33-16.67,88.67-25,133-34.73-19.2-65.57-39.98-109-53-154.81-46.42-273.55,9.11-319,124-10.67,26.96-25.1,67.98-18,110,17.12,101.31,76.3,158.04,161,191,108.15,42.09,248.82.86,309-57l2,1c2.33,48.33,4.67,96.67,7,145-19,9-38,18-57,27-71.9,28.42-198.35,43.24-287,21C103.69,666.38-45.59,478.8,12.99,265.09c8.63-31.48,19.85-62.15,35-88C91.66,102.55,155.11,46.44,242.99,16.09l66-14,31-2Z"/>
</svg>