<?xml version="1.0" encoding="UTF-8"?>
<svg id="Layer_1" xmlns="http://www.w3.org/2000/svg" viewBox="0 0 859 725.51">
  <defs>
    <style>
      .cls-1 {
        fill: #d26c4f;
        fill-rule: evenodd;
      }
    </style>
  </defs>
  <path class="cls-1" d="M140,718.83H2L0,372.83c28.28-80.02,67.24-152.64,108-220,12.9-21.32,20.64-43,35-62C185.91,34.03,277.9-17.73,386,5.83c123.98,27.02,191.81,100.75,213,232v227c0,36.4-.58,69.71,13,92,13.97,22.92,65.44,48.04,107,31,20.25-8.3,29.43-27.87,40-46l2,1c14.41,37.44,64.38,89.15,98,108l-2,2c-28.63,68.68-164.86,87.89-259,61-77.68-22.19-113.29-80.58-132-162l-9-81v-122c14.33-95.5-12.15-177.09-68-210-55.88-32.93-131.61-6.82-171,22-32.28,23.61-57.01,56.29-70,99-13.32,43.8-9,106.06-9,164l1,295Z"/>
</svg>